<svg viewBox="0 0 24 24"  xmlns="http://www.w3.org/2000/svg" style="display:none">

	<symbol viewBox="0 0 23.091 11.602" id="arrow-next">
		<path d="M22.938,132.8h0l-5.248-5.248a.525.525,0,1,0-.74.74l4.35,4.356H.525a.525.525,0,0,0,0,1.05H21.3l-4.35,4.35a.525.525,0,1,0,.74.74l5.248-5.248A.525.525,0,0,0,22.938,132.8Z" transform="translate(0 -127.369)"/>
	</symbol>
		
	<symbol viewBox="0 0 8.264 14.417" id="slider-arrow-prev">
		<path d="M16.064,134.118h0l6.858-6.521a.711.711,0,0,1,.967-.071.63.63,0,0,1,.075.919.667.667,0,0,1-.075.071L18.2,133.929v-.619c.379,0-.182.878-.182,1.238s.561.99.182.99v-.3l5.685,5.406a.63.63,0,0,1,.075.919.711.711,0,0,1-.967.071.673.673,0,0,1-.075-.071l-6.858-6.521A.63.63,0,0,1,16.064,134.118Z" transform="translate(-15.864 -127.369)"/>
	</symbol>

	<symbol viewBox="0 0 10.109 10.109" id="arrow-link">
		<path d="M13.381,3.867H5.668a.417.417,0,1,0,0,.834h6.9L4.012,13.253a.417.417,0,1,0,.589.589l8.552-8.552v6.9a.417.417,0,0,0,.834,0V4.473a.607.607,0,0,0-.606-.606Z" transform="translate(-3.877 -3.867)"/>
	</symbol>

	<symbol viewBox="0 0 9.195 17.314" id="arrow-down">
		<g transform="translate(9.195) rotate(90)"><path d="M17.2,4.3h0L13.265.145A.379.379,0,0,0,12.71.1a.432.432,0,0,0-.043.586.4.4,0,0,0,.043.045l3.262,3.452H.393a.417.417,0,0,0,0,.832H15.972L12.71,8.463a.432.432,0,0,0-.043.586.379.379,0,0,0,.555.045.407.407,0,0,0,.043-.045L17.2,4.891A.433.433,0,0,0,17.2,4.3Z"/></g>
	</symbol>

	<symbol viewBox="0 0 84 84" id="drop-down-arrow">
		<path d="M13.9 27.6c-1.1 1.3.7 3.5 13.4 16.2L42 58.5l14.7-14.7c14-14 14.7-14.9 13-16.5-1.6-1.7-2.4-1.1-14.7 11.2l-13 13-12.8-12.8c-7-7-13-12.7-13.3-12.7-.4 0-1.2.7-2 1.6z"/>
	</symbol>

</svg>